<?xml version="1.0" standalone="no"?>
<!DOCTYPE svg PUBLIC "-//W3C//DTD SVG 20010904//EN"
 "http://www.w3.org/TR/2001/REC-SVG-20010904/DTD/svg10.dtd">
<svg version="1.0" xmlns="http://www.w3.org/2000/svg"
 width="270.000000pt" height="70.000000pt" viewBox="0 0 270.000000 70.000000"
 preserveAspectRatio="xMidYMid meet">
<metadata>
Created by potrace 1.10, written by Peter Selinger 2001-2011
</metadata>
<g transform="translate(0.000000,70.000000) scale(0.100000,-0.100000)"
fill="#000000" stroke="none">
<path d="M263 642 c-96 -34 -159 -98 -194 -198 -84 -236 161 -472 396 -384
117 44 205 168 205 290 0 204 -217 360 -407 292z m240 -35 c94 -55 147 -148
147 -257 0 -109 -53 -202 -147 -257 -34 -20 -63 -27 -118 -31 -128 -8 -220 41
-280 149 -27 48 -30 63 -30 139 0 76 3 91 30 139 60 108 140 152 271 148 66
-3 89 -8 127 -30z"/>
<path d="M255 586 c-27 -13 -59 -33 -69 -45 -19 -21 -19 -22 0 -35 10 -8 37
-28 58 -45 26 -21 46 -30 60 -26 12 3 15 2 8 -1 -23 -11 -2 -22 30 -15 28 6
33 11 33 36 1 25 5 30 25 30 19 0 25 -5 23 -19 -1 -11 5 -25 13 -33 8 -8 14
-23 14 -34 0 -11 11 -37 25 -59 14 -22 25 -48 25 -59 0 -10 6 -21 14 -24 8 -3
20 -18 28 -34 7 -15 18 -28 23 -28 18 0 49 80 53 138 14 192 -190 335 -363
253z m206 -11 c44 -22 80 -55 73 -67 -3 -5 0 -7 8 -6 7 2 12 -3 10 -11 -1 -7
3 -19 9 -27 7 -8 9 -17 6 -21 -4 -3 -3 -11 2 -17 26 -31 15 -156 -12 -156 -7
0 -23 27 -37 60 -14 33 -29 60 -34 60 -5 0 -7 3 -3 6 8 9 -31 85 -55 106 -23
20 -45 14 -76 -23 -19 -24 -27 -26 -52 -19 -17 5 -30 6 -30 4 0 -3 -15 9 -32
25 -18 17 -37 31 -42 31 -29 0 48 53 104 71 36 12 122 3 161 -16z"/>
<path d="M127 463 c-30 -67 -30 -172 0 -229 29 -54 101 -117 151 -132 58 -18
141 -14 187 7 50 24 106 70 85 71 -8 0 -24 13 -35 30 -11 16 -32 35 -47 41
-18 7 -28 19 -28 32 0 19 -1 19 -18 4 -10 -10 -23 -17 -29 -17 -7 0 -9 -17 -5
-45 4 -43 4 -45 -22 -45 -27 0 -36 15 -13 23 9 3 9 11 -1 41 -12 33 -12 40 4
57 9 10 23 19 31 19 9 0 13 8 11 23 -2 15 -10 22 -25 22 -12 0 -25 4 -29 8 -4
4 -15 7 -25 7 -10 0 -22 8 -28 17 -8 15 -11 15 -28 3 -16 -13 -17 -13 -6 1 11
13 4 23 -42 62 -29 26 -56 47 -60 47 -3 0 -16 -21 -28 -47z m71 -19 c12 -8 29
-28 37 -45 9 -16 20 -29 26 -29 6 0 24 -9 40 -21 23 -16 27 -24 19 -38 -13
-26 -4 -129 14 -146 8 -8 22 -15 32 -15 21 0 54 28 54 46 0 21 20 27 46 13 90
-48 -90 -107 -194 -63 -77 32 -120 94 -129 187 -5 50 -4 57 12 57 17 0 17 1 2
18 -11 12 -13 22 -6 35 12 21 18 21 47 1z"/>
<path d="M740 350 c0 -293 0 -300 20 -300 20 0 20 7 20 300 0 293 0 300 -20
300 -20 0 -20 -7 -20 -300z"/>
<path d="M860 570 c0 -58 3 -70 16 -70 14 0 16 8 10 53 -8 59 4 54 24 -10 7
-24 19 -43 25 -43 7 0 18 20 25 45 18 63 30 66 23 5 -5 -42 -3 -50 11 -50 13
0 16 12 16 70 0 62 -2 70 -19 70 -15 0 -24 -14 -39 -57 l-19 -58 -17 58 c-13
44 -21 57 -36 57 -18 0 -20 -7 -20 -70z"/>
<path d="M1075 628 c-2 -7 -13 -38 -25 -68 -24 -65 -23 -60 -6 -60 7 0 16 9
19 20 3 13 14 20 30 20 16 0 26 -7 30 -20 3 -11 12 -20 20 -20 12 0 10 13 -11
70 -25 65 -47 87 -57 58z"/>
<path d="M1191 614 c-25 -32 -27 -61 -5 -92 12 -17 25 -22 60 -22 44 0 44 0
44 35 0 28 -4 35 -20 35 -11 0 -23 0 -27 1 -4 0 -9 -4 -11 -10 -2 -6 3 -11 12
-11 9 0 16 -7 16 -15 0 -18 -31 -20 -48 -3 -33 33 -2 92 45 85 10 -1 20 3 23
8 3 6 -11 11 -31 13 -30 3 -41 -2 -58 -24z"/>
<path d="M1310 635 c0 -3 9 -23 20 -45 11 -22 20 -51 20 -65 0 -16 6 -25 15
-25 10 0 15 10 15 33 0 17 9 46 20 62 23 35 25 45 7 45 -7 0 -20 -15 -29 -32
l-15 -33 -17 33 c-14 27 -36 44 -36 27z"/>
<path d="M1477 633 c-8 -13 -47 -117 -47 -125 0 -5 7 -8 15 -8 8 0 15 9 15 20
0 15 7 20 29 20 20 0 30 -6 34 -20 5 -19 27 -29 27 -12 0 4 -10 34 -23 67 -22
56 -39 76 -50 58z"/>
<path d="M1578 570 c-2 -51 0 -70 10 -70 7 0 12 13 12 30 0 17 4 30 10 30 5 0
16 -13 25 -30 9 -16 22 -30 31 -30 16 0 12 12 -13 41 -11 14 -11 18 2 29 35
29 6 70 -49 70 -23 0 -25 -3 -28 -70z m57 25 c0 -11 -8 -21 -17 -23 -14 -3
-18 3 -18 23 0 20 4 26 18 23 9 -2 17 -12 17 -23z"/>
<path d="M1560 445 c-21 -25 -1 -31 23 -7 17 18 18 22 5 22 -8 0 -21 -7 -28
-15z"/>
<path d="M2332 448 c-7 -7 -12 -43 -12 -90 0 -63 3 -78 15 -78 12 0 15 14 15
64 0 36 -5 68 -10 71 -6 4 -1 14 12 25 17 15 19 19 8 20 -9 0 -21 -5 -28 -12z"/>
<path d="M860 350 c0 -56 3 -70 15 -70 10 0 15 10 15 30 0 27 3 30 30 30 27 0
30 -3 30 -30 0 -17 5 -30 13 -30 16 0 14 133 -2 138 -6 2 -11 -9 -11 -27 0
-28 -3 -31 -30 -31 -27 0 -30 3 -30 30 0 20 -5 30 -15 30 -12 0 -15 -14 -15
-70z"/>
<path d="M1027 402 c-17 -19 -23 -78 -9 -99 12 -19 55 -31 79 -22 31 11 46 45
38 85 -9 53 -74 74 -108 36z m71 -14 c13 -13 16 -47 6 -72 -9 -23 -51 -20 -64
4 -25 46 23 103 58 68z"/>
<path d="M1176 405 c-9 -9 -16 -20 -16 -25 0 -13 28 -38 50 -45 11 -3 20 -13
20 -22 0 -12 -8 -14 -35 -11 -39 4 -50 -16 -14 -25 64 -17 96 48 38 78 -36 19
-33 41 6 37 19 -2 26 1 23 10 -7 20 -53 21 -72 3z"/>
<path d="M1286 405 c-9 -9 -16 -20 -16 -25 0 -13 28 -38 50 -45 11 -3 20 -13
20 -22 0 -12 -8 -14 -35 -11 -39 4 -50 -16 -14 -25 64 -17 96 48 38 78 -36 19
-33 41 6 37 19 -2 26 1 23 10 -7 20 -53 21 -72 3z"/>
<path d="M1383 408 c2 -8 17 -12 36 -10 37 4 37 6 -11 -65 -15 -23 -28 -44
-28 -47 0 -3 23 -6 50 -6 28 0 50 5 50 10 0 6 -16 10 -35 10 l-35 0 35 49 c19
26 35 53 35 60 0 7 -20 11 -51 11 -36 0 -49 -4 -46 -12z"/>
<path d="M1510 361 c0 -64 13 -84 55 -84 43 1 55 20 55 85 0 43 -3 59 -12 56
-8 -3 -12 -19 -10 -41 5 -54 -5 -77 -34 -77 -23 0 -24 3 -24 60 0 47 -3 60
-15 60 -12 0 -15 -13 -15 -59z"/>
<path d="M1660 350 c0 -52 3 -70 14 -70 9 0 12 8 9 24 -7 36 13 40 33 6 10
-16 24 -30 31 -30 18 0 16 7 -12 44 l-25 33 25 23 c27 26 32 40 13 40 -7 0
-24 -17 -38 -37 l-25 -37 -3 37 c-6 65 -22 40 -22 -33z"/>
<path d="M1820 416 c0 -2 -11 -33 -25 -70 -20 -52 -22 -66 -11 -66 8 0 18 9
21 20 4 13 15 20 32 20 16 0 27 -7 30 -20 3 -11 12 -20 19 -20 11 0 8 15 -11
66 -14 37 -25 68 -25 70 0 2 -7 4 -15 4 -8 0 -15 -2 -15 -4z"/>
<path d="M1920 350 c0 -58 3 -70 16 -70 12 0 15 7 12 25 -8 38 10 41 30 6 9
-17 25 -31 35 -31 17 0 17 2 -3 27 -14 18 -17 30 -10 37 14 14 13 49 -2 64 -7
7 -27 12 -45 12 l-33 0 0 -70z m54 44 c18 -7 21 -30 6 -39 -19 -12 -39 3 -33
24 6 24 5 23 27 15z"/>
<path d="M2050 350 l0 -70 38 0 c47 0 72 24 72 68 0 43 -31 72 -75 72 l-35 0
0 -70z m71 29 c31 -31 11 -78 -33 -79 -15 0 -18 9 -18 50 0 56 15 65 51 29z"/>
<path d="M2182 409 c2 -8 12 -40 23 -72 23 -69 40 -71 65 -7 31 79 33 90 17
90 -8 0 -18 -11 -21 -25 -3 -13 -11 -37 -17 -52 l-11 -28 -17 49 c-9 27 -22
52 -29 54 -8 2 -12 -2 -10 -9z"/>
<path d="M2374 403 c22 -68 46 -118 57 -121 15 -3 65 125 54 136 -10 11 -26
-15 -39 -64 l-13 -49 -18 58 c-11 33 -24 57 -33 57 -8 0 -11 -7 -8 -17z"/>
<path d="M2527 402 c-17 -19 -23 -78 -9 -99 12 -19 55 -31 79 -22 31 11 46 45
38 85 -9 53 -74 74 -108 36z m71 -14 c13 -13 16 -47 6 -72 -9 -23 -51 -20 -64
4 -25 46 23 103 58 68z"/>
<path d="M876 195 c-9 -9 -16 -20 -16 -25 0 -13 28 -38 50 -45 11 -3 20 -13
20 -22 0 -12 -8 -14 -35 -11 -39 4 -50 -16 -14 -25 64 -17 96 48 38 78 -36 19
-33 41 6 37 19 -2 26 1 23 10 -7 20 -53 21 -72 3z"/>
<path d="M988 140 c-2 -51 0 -70 10 -70 6 0 12 11 12 25 0 19 5 25 23 25 29 0
47 18 47 47 0 25 -26 43 -64 43 -23 0 -25 -3 -28 -70z m60 22 c3 -17 -2 -22
-17 -22 -16 0 -21 6 -21 26 0 33 33 30 38 -4z"/>
<path d="M1127 192 c-17 -19 -23 -78 -9 -99 12 -19 55 -31 79 -22 31 11 46 45
38 85 -9 53 -74 74 -108 36z m71 -14 c13 -13 16 -47 6 -72 -9 -23 -51 -20 -64
4 -25 46 23 103 58 68z"/>
<path d="M1270 140 c0 -56 3 -70 15 -70 10 0 15 10 15 30 0 17 4 30 8 30 4 0
16 -14 25 -30 10 -17 25 -30 33 -30 12 0 11 6 -5 29 -18 25 -19 30 -6 41 34
28 3 70 -51 70 l-34 0 0 -70z m65 25 c0 -11 -8 -21 -17 -23 -14 -3 -18 3 -18
23 0 20 4 26 18 23 9 -2 17 -12 17 -23z"/>
<path d="M1393 198 c2 -7 11 -12 21 -10 13 2 16 -7 16 -58 0 -47 3 -60 15 -60
12 0 15 13 15 60 0 51 3 60 16 58 10 -2 19 3 21 10 3 9 -11 12 -52 12 -41 0
-55 -3 -52 -12z"/>
<path d="M1532 198 c-21 -21 -13 -48 18 -66 40 -23 40 -46 0 -40 -20 3 -30 0
-30 -9 0 -21 56 -20 79 2 20 19 5 52 -30 64 -36 12 -34 36 2 36 13 0 26 5 29
10 7 15 -53 18 -68 3z"/>
<path d="M1630 196 c0 -11 9 -13 36 -9 l37 6 -37 -54 c-20 -29 -36 -57 -36
-61 0 -5 23 -8 50 -8 28 0 50 5 50 10 0 6 -16 10 -36 10 l-36 0 36 50 c20 28
36 55 36 60 0 6 -22 10 -50 10 -37 0 -50 -4 -50 -14z"/>
<path d="M1775 190 c-23 -25 -23 -86 -1 -108 18 -19 69 -20 90 -2 23 18 21 92
-2 113 -25 23 -65 21 -87 -3z m75 -21 c24 -44 -10 -96 -47 -73 -22 14 -28 46
-13 73 14 27 46 27 60 0z"/>
<path d="M1910 203 c0 -5 9 -37 21 -72 27 -81 45 -78 75 12 18 53 20 67 9 67
-9 0 -21 -23 -31 -57 l-17 -58 -16 54 c-9 30 -22 56 -29 59 -6 2 -12 0 -12 -5z"/>
<path d="M2050 140 l0 -70 40 0 c22 0 40 5 40 10 0 6 -13 10 -28 10 -21 0 -28
5 -28 20 0 15 7 20 28 20 15 0 28 5 28 10 0 6 -13 10 -30 10 -31 0 -36 6 -21
29 5 8 18 12 30 8 14 -3 21 0 21 9 0 10 -12 14 -40 14 l-40 0 0 -70z"/>
<path d="M2153 198 c2 -7 11 -12 21 -10 13 2 16 -7 16 -58 0 -47 3 -60 15 -60
12 0 15 13 15 60 0 53 2 60 20 60 11 0 20 5 20 10 0 6 -25 10 -56 10 -40 0
-54 -3 -51 -12z"/>
<path d="M2292 198 c-21 -21 -13 -45 24 -67 40 -24 36 -45 -7 -39 -18 3 -29 0
-29 -8 0 -19 43 -25 67 -8 32 20 29 50 -7 69 -36 19 -41 47 -7 43 12 -2 24 2
27 7 7 15 -53 18 -68 3z"/>
<path d="M2400 141 l0 -71 45 0 c25 0 45 5 45 10 0 6 -13 10 -30 10 -23 0 -30
4 -30 20 0 15 7 20 25 20 14 0 25 5 25 10 0 6 -11 10 -25 10 -19 0 -25 5 -25
21 0 16 5 20 25 17 13 -2 25 2 27 7 2 6 -16 11 -39 13 l-43 3 0 -70z"/>
<path d="M2540 192 c-18 -15 -24 -29 -23 -56 1 -51 17 -66 69 -66 43 0 44 1
44 34 0 28 -4 34 -25 38 -31 6 -45 -11 -16 -19 28 -7 27 -33 -2 -33 -29 0 -47
18 -47 44 0 34 17 51 50 51 40 0 44 19 4 23 -19 2 -40 -4 -54 -16z"/>
</g>
</svg>
